<?xml version="1.0" standalone="no"?>
<!DOCTYPE svg PUBLIC "-//W3C//DTD SVG 20010904//EN"
 "http://www.w3.org/TR/2001/REC-SVG-20010904/DTD/svg10.dtd">
<svg version="1.0" xmlns="http://www.w3.org/2000/svg"
 width="1200.000000pt" height="1200.000000pt" viewBox="0 0 1200.000000 1200.000000"
 preserveAspectRatio="xMidYMid meet">
<metadata>
Created by potrace 1.14, written by Peter Selinger 2001-2017
</metadata>
<g transform="translate(0.000000,1200.000000) scale(0.100000,-0.100000)"
fill="#000000" stroke="none">
<path d="M5640 9043 c-32 -12 -71 -46 -88 -76 -15 -28 -18 -72 -22 -316 l-5
-284 -120 -27 c-509 -113 -955 -360 -1330 -735 -429 -429 -684 -938 -776
-1553 -18 -119 -22 -192 -23 -382 0 -209 3 -253 27 -400 50 -306 120 -527 252
-795 140 -283 285 -485 515 -716 231 -232 425 -373 705 -514 402 -202 771
-290 1225 -290 454 0 823 88 1225 290 280 141 474 282 705 514 230 231 375
433 515 716 131 266 202 491 252 796 24 146 27 190 27 399 -1 190 -5 263 -23
382 -92 615 -347 1124 -776 1553 -375 375 -821 622 -1330 735 l-120 27 -5 285
-5 285 -27 40 c-48 72 -52 73 -440 72 -188 0 -350 -3 -358 -6z m513 -471 l2
-162 -155 0 -155 0 2 162 c1 90 3 164 3 166 0 1 68 1 151 0 l150 -3 2 -163z
m-303 -1363 c4 -107 8 -128 27 -155 65 -91 210 -80 257 20 12 25 16 63 16 144
0 61 4 113 8 116 17 10 254 -38 366 -75 180 -59 359 -156 516 -278 l25 -20
-86 -88 c-67 -68 -88 -96 -93 -125 -20 -110 69 -200 179 -182 33 5 56 22 128
93 l88 86 20 -25 c114 -147 214 -328 272 -496 35 -99 74 -272 79 -349 l3 -40
-125 -5 c-134 -5 -149 -10 -192 -65 -32 -41 -32 -128 0 -171 42 -56 75 -68
205 -72 l117 -4 -6 -37 c-37 -226 -83 -382 -161 -538 -47 -94 -135 -235 -187
-298 l-24 -30 -89 86 c-72 71 -95 88 -128 93 -110 18 -199 -72 -179 -182 5
-29 26 -57 93 -125 l86 -88 -25 -20 c-144 -114 -335 -218 -510 -278 -85 -30
-262 -69 -325 -73 l-50 -3 -3 115 c-4 129 -15 163 -65 201 -45 34 -129 34
-174 0 -50 -38 -61 -72 -65 -201 l-3 -115 -50 3 c-63 4 -240 43 -325 73 -175
60 -366 164 -510 278 l-25 20 86 88 c71 72 88 95 93 128 18 110 -72 199 -182
179 -29 -5 -57 -26 -125 -93 l-89 -86 -24 30 c-52 63 -140 204 -187 300 -79
158 -124 309 -161 536 l-6 37 117 4 c130 4 163 16 205 72 32 43 32 130 0 171
-43 55 -58 60 -192 65 l-125 5 3 40 c5 77 44 250 79 349 58 168 158 349 272
496 l20 25 88 -86 c68 -67 96 -88 125 -93 110 -20 200 69 182 179 -5 33 -22
56 -93 128 l-86 88 25 20 c223 173 487 292 750 337 63 11 120 19 125 18 6 -2
12 -57 15 -127z"/>
<path d="M6449 6379 c-15 -6 -137 -130 -272 -277 -348 -380 -335 -362 -324
-444 14 -101 125 -161 214 -114 32 16 542 563 577 619 44 67 13 177 -58 211
-37 18 -97 20 -137 5z"/>
</g>
</svg>
